<?xml version="1.0" encoding="utf-8"?>
<svg xmlns="http://www.w3.org/2000/svg" viewBox="0 0 256 256" width="800px" height="800px"><path d="M 256 128 C 256 198.692 198.692 256 128 256 C 57.308 256 0 198.692 0 128 C 0 57.308 57.308 0 128 0 C 198.692 0 256 57.308 256 128 Z M 117.475 82.729 C 136.772 78.441 156.07 86.303 166.79 101.311 L 81.502 120.609 C 84.361 102.264 98.178 87.017 117.475 82.729 Z M 167.267 153.485 C 160.596 163.253 150.352 170.162 138.678 172.782 C 119.381 177.07 99.846 169.209 89.125 153.962 L 174.652 134.664 L 188.47 131.567 L 215.152 125.611 C 214.914 119.894 214.199 114.176 213.008 108.697 C 202.287 62.717 155.355 33.891 108.422 44.611 C 61.49 55.332 32.187 101.073 43.146 147.291 C 54.105 193.509 100.799 222.097 147.731 211.376 C 175.367 205.182 196.808 186.6 207.767 163.015 Z" style="fill: rgb(227, 94, 159);" id="object-0" transform="matrix(1, 0, 0, 1, 3.552713678800501e-15, 0)"/></svg>