<?xml version="1.0" encoding="utf-8"?>
<svg width="800px" height="800px" viewBox="0 0 20 20" version="1.1" xmlns="http://www.w3.org/2000/svg" xmlns:bx="https://boxy-svg.com"><title>instagram [#167]</title><desc>Created with Sketch.</desc><defs><bx:export><bx:file format="jpeg" path="instagram [#167].jpeg" excluded="true"/><bx:file format="svg" path="instagram [#167].svg"/></bx:export></defs><path d="M 5.87 0.123 C 4.242 0.196 2.831 0.594 1.691 1.729 C 0.548 2.869 0.155 4.286 0.082 5.897 C 0.036 6.902 -0.232 14.498 0.544 16.49 C 1.068 17.834 2.098 18.867 3.455 19.393 C 4.088 19.639 4.81 19.805 5.87 19.854 C 14.73 20.255 18.015 20.037 19.4 16.49 C 19.646 15.859 19.815 15.137 19.862 14.08 C 20.267 5.197 19.796 3.271 18.252 1.729 C 17.027 0.507 15.586 -0.325 5.87 0.123 M 5.951 18.067 C 4.981 18.024 4.455 17.862 4.103 17.726 C 3.22 17.383 2.556 16.722 2.215 15.843 C 1.624 14.329 1.82 7.14 1.873 5.977 C 1.924 4.837 2.155 3.796 2.959 2.992 C 3.954 2 5.24 1.513 13.993 1.908 C 15.135 1.96 16.179 2.19 16.985 2.992 C 17.98 3.985 18.474 5.28 18.072 14 C 18.028 14.968 17.866 15.493 17.73 15.843 C 16.829 18.151 14.757 18.471 5.951 18.067 M 14.09 4.69 C 14.09 5.347 14.624 5.881 15.284 5.881 C 15.943 5.881 16.479 5.347 16.479 4.69 C 16.479 4.032 15.943 3.498 15.284 3.498 C 14.624 3.498 14.09 4.032 14.09 4.69 M 4.863 9.988 C 4.863 12.803 7.15 15.085 9.972 15.085 C 12.794 15.085 15.082 12.803 15.082 9.988 C 15.082 7.173 12.794 4.892 9.972 4.892 C 7.15 4.892 4.863 7.173 4.863 9.988 M 6.656 9.988 C 6.656 8.162 8.14 6.68 9.972 6.68 C 11.804 6.68 13.289 8.162 13.289 9.988 C 13.289 11.815 11.804 13.297 9.972 13.297 C 8.14 13.297 6.656 11.815 6.656 9.988" id="instagram-[#167]" stroke="none" stroke-width="1" fill-rule="evenodd" style="stroke-width: 1; fill: rgb(227, 94, 159);"/></svg>